<svg xmlns="http://www.w3.org/2000/svg" xmlns:xlink="http://www.w3.org/1999/xlink" width="500" zoomAndPan="magnify" viewBox="0 0 375 374.999991" height="500" preserveAspectRatio="xMidYMid meet" version="1.0"><defs><g/><clipPath id="1d77f17edd"><path d="M 337.5 177.699219 L 357.101562 177.699219 L 357.101562 197.300781 L 337.5 197.300781 Z M 337.5 177.699219 " clip-rule="nonzero"/></clipPath><clipPath id="af2ef3db76"><path d="M 347.300781 177.699219 C 341.886719 177.699219 337.5 182.085938 337.5 187.5 C 337.5 192.914062 341.886719 197.300781 347.300781 197.300781 C 352.714844 197.300781 357.101562 192.914062 357.101562 187.5 C 357.101562 182.085938 352.714844 177.699219 347.300781 177.699219 " clip-rule="nonzero"/></clipPath></defs><rect x="-37.5" width="450" fill="#ffffff" y="-37.499999" height="449.999989" fill-opacity="1"/><rect x="-37.5" width="450" fill="#ffffff" y="-37.499999" height="449.999989" fill-opacity="1"/><rect x="-37.5" width="450" fill="#ffffff" y="-37.499999" height="449.999989" fill-opacity="1"/><g fill="#000000" fill-opacity="1"><g transform="translate(38.901407, 195.411755)"><g><path d="M 2.328125 0 L 2.328125 -52.5 L 12.828125 -52.5 L 12.828125 -8.921875 L 23.65625 -8.921875 L 23.65625 0 Z M 2.328125 0 "/></g></g></g><g fill="#000000" fill-opacity="1"><g transform="translate(59.797501, 195.411755)"><g><path d="M 14.671875 0.484375 C 10.066406 0.484375 6.765625 -0.773438 4.765625 -3.296875 C 2.765625 -5.828125 1.765625 -9.597656 1.765625 -14.609375 L 1.765625 -32.578125 C 1.765625 -36.691406 2.945312 -39.828125 5.3125 -41.984375 C 7.675781 -44.140625 10.976562 -45.21875 15.21875 -45.21875 C 23.8125 -45.21875 28.109375 -41.003906 28.109375 -32.578125 L 28.109375 -29.328125 C 28.109375 -26.066406 28.066406 -23.421875 27.984375 -21.390625 L 12.46875 -21.390625 L 12.46875 -12.703125 C 12.46875 -11.160156 12.628906 -9.953125 12.953125 -9.078125 C 13.273438 -8.203125 13.96875 -7.765625 15.03125 -7.765625 C 15.84375 -7.765625 16.421875 -8.007812 16.765625 -8.5 C 17.117188 -8.988281 17.328125 -9.546875 17.390625 -10.171875 C 17.453125 -10.804688 17.484375 -11.734375 17.484375 -12.953125 L 17.484375 -17.296875 L 28.109375 -17.296875 L 28.109375 -14.734375 C 28.109375 -9.515625 27.097656 -5.671875 25.078125 -3.203125 C 23.066406 -0.742188 19.597656 0.484375 14.671875 0.484375 Z M 17.484375 -26.703125 L 17.484375 -32.453125 C 17.484375 -35.671875 16.6875 -37.28125 15.09375 -37.28125 C 13.300781 -37.28125 12.40625 -35.671875 12.40625 -32.453125 L 12.40625 -26.703125 Z M 17.484375 -26.703125 "/></g></g></g><g fill="#000000" fill-opacity="1"><g transform="translate(86.253847, 195.411755)"><g><path d="M 2.140625 -44.734375 L 12.59375 -44.734375 L 12.59375 -39.53125 C 13.082031 -41.445312 13.914062 -42.875 15.09375 -43.8125 C 16.269531 -44.75 17.941406 -45.21875 20.109375 -45.21875 C 21.859375 -45.21875 23.375 -44.820312 24.65625 -44.03125 C 25.9375 -43.238281 26.84375 -42.148438 27.375 -40.765625 C 28.269531 -42.304688 29.265625 -43.429688 30.359375 -44.140625 C 31.460938 -44.859375 32.992188 -45.21875 34.953125 -45.21875 C 38.453125 -45.21875 40.882812 -44.144531 42.25 -42 C 43.613281 -39.863281 44.296875 -36.757812 44.296875 -32.6875 L 44.1875 0 L 33.421875 0 L 33.421875 -32.875 C 33.421875 -35.769531 32.691406 -37.21875 31.234375 -37.21875 C 30.210938 -37.21875 29.476562 -36.71875 29.03125 -35.71875 C 28.582031 -34.71875 28.359375 -33.523438 28.359375 -32.140625 L 28.359375 0 L 17.65625 0 L 17.65625 -32.875 C 17.65625 -34.132812 17.519531 -35.148438 17.25 -35.921875 C 16.988281 -36.703125 16.429688 -37.09375 15.578125 -37.09375 C 14.484375 -37.09375 13.710938 -36.550781 13.265625 -35.46875 C 12.816406 -34.394531 12.59375 -33.101562 12.59375 -31.59375 L 12.59375 0 L 2.140625 0 Z M 2.140625 -44.734375 "/></g></g></g><g fill="#000000" fill-opacity="1"><g transform="translate(129.207624, 195.411755)"><g><path d="M 15.15625 0.484375 C 6.226562 0.484375 1.765625 -4.140625 1.765625 -13.390625 L 1.765625 -31.34375 C 1.765625 -35.582031 2.957031 -38.953125 5.34375 -41.453125 C 7.726562 -43.960938 11 -45.21875 15.15625 -45.21875 C 19.3125 -45.21875 22.578125 -43.960938 24.953125 -41.453125 C 27.335938 -38.953125 28.53125 -35.582031 28.53125 -31.34375 L 28.53125 -13.390625 C 28.53125 -4.140625 24.070312 0.484375 15.15625 0.484375 Z M 15.15625 -7.765625 C 16.007812 -7.765625 16.640625 -8.066406 17.046875 -8.671875 C 17.453125 -9.285156 17.65625 -10.125 17.65625 -11.1875 L 17.65625 -33.0625 C 17.65625 -35.664062 16.820312 -36.96875 15.15625 -36.96875 C 13.488281 -36.96875 12.65625 -35.664062 12.65625 -33.0625 L 12.65625 -11.1875 C 12.65625 -10.125 12.859375 -9.285156 13.265625 -8.671875 C 13.671875 -8.066406 14.300781 -7.765625 15.15625 -7.765625 Z M 15.15625 -7.765625 "/></g></g></g><g fill="#000000" fill-opacity="1"><g transform="translate(156.213882, 195.411755)"><g><path d="M 2.140625 -44.734375 L 12.828125 -44.734375 L 12.828125 -39.046875 C 13.273438 -40.878906 14.050781 -42.363281 15.15625 -43.5 C 16.257812 -44.644531 17.726562 -45.21875 19.5625 -45.21875 C 22.570312 -45.21875 24.800781 -44.289062 26.25 -42.4375 C 27.695312 -40.582031 28.421875 -37.945312 28.421875 -34.53125 L 28.421875 0 L 17.90625 0 L 17.90625 -33.421875 C 17.90625 -34.398438 17.710938 -35.234375 17.328125 -35.921875 C 16.941406 -36.617188 16.335938 -36.96875 15.515625 -36.96875 C 14.421875 -36.96875 13.695312 -36.46875 13.34375 -35.46875 C 13 -34.476562 12.828125 -33.144531 12.828125 -31.46875 L 12.828125 0 L 2.140625 0 Z M 2.140625 -44.734375 "/></g></g></g><g fill="#000000" fill-opacity="1"><g transform="translate(183.342341, 195.411755)"><g><path d="M 15.09375 0.546875 C 10.289062 0.546875 6.796875 -0.816406 4.609375 -3.546875 C 2.429688 -6.273438 1.34375 -10.304688 1.34375 -15.640625 L 1.34375 -19.125 C 1.34375 -21.894531 1.675781 -24.09375 2.34375 -25.71875 C 3.019531 -27.351562 4.191406 -28.578125 5.859375 -29.390625 C 4.273438 -30.046875 3.132812 -31.125 2.4375 -32.625 C 1.75 -34.132812 1.40625 -36.070312 1.40625 -38.4375 L 1.40625 -39.84375 C 1.40625 -44.40625 2.554688 -47.765625 4.859375 -49.921875 C 7.160156 -52.085938 10.570312 -53.171875 15.09375 -53.171875 C 19.695312 -53.171875 23.128906 -52.066406 25.390625 -49.859375 C 27.648438 -47.660156 28.78125 -44.179688 28.78125 -39.421875 C 28.78125 -36.722656 28.453125 -34.550781 27.796875 -32.90625 C 27.148438 -31.257812 25.992188 -30.066406 24.328125 -29.328125 C 26.191406 -28.429688 27.410156 -27.035156 27.984375 -25.140625 C 28.554688 -23.253906 28.84375 -20.535156 28.84375 -16.984375 C 28.84375 -16.296875 28.820312 -15.847656 28.78125 -15.640625 C 28.78125 -10.304688 27.703125 -6.273438 25.546875 -3.546875 C 23.390625 -0.816406 19.90625 0.546875 15.09375 0.546875 Z M 15.09375 -33.859375 C 16.925781 -33.859375 17.84375 -35.523438 17.84375 -38.859375 C 17.84375 -40.171875 17.628906 -41.273438 17.203125 -42.171875 C 16.773438 -43.066406 16.070312 -43.515625 15.09375 -43.515625 C 14.113281 -43.515625 13.410156 -43.066406 12.984375 -42.171875 C 12.554688 -41.273438 12.34375 -40.171875 12.34375 -38.859375 C 12.34375 -35.523438 13.257812 -33.859375 15.09375 -33.859375 Z M 15.09375 -9.84375 C 17.007812 -9.84375 17.96875 -11.570312 17.96875 -15.03125 L 17.90625 -17.65625 C 17.90625 -19.65625 17.738281 -21.265625 17.40625 -22.484375 C 17.082031 -23.710938 16.3125 -24.328125 15.09375 -24.328125 C 14.070312 -24.328125 13.335938 -23.785156 12.890625 -22.703125 C 12.441406 -21.617188 12.21875 -20.285156 12.21875 -18.703125 C 12.21875 -18.003906 12.238281 -17.492188 12.28125 -17.171875 L 12.28125 -16.6875 L 12.21875 -15.03125 C 12.21875 -11.570312 13.175781 -9.84375 15.09375 -9.84375 Z M 15.09375 -9.84375 "/></g></g></g><g fill="#000000" fill-opacity="1"><g transform="translate(210.165287, 195.411755)"><g><path d="M 14.171875 6.53125 C 10.992188 6.53125 8.5 6.273438 6.6875 5.765625 C 4.875 5.265625 3.09375 4.300781 1.34375 2.875 L 5.015625 -3.296875 C 7.617188 -1.753906 10.203125 -0.984375 12.765625 -0.984375 C 14.441406 -0.984375 15.707031 -1.507812 16.5625 -2.5625 C 17.414062 -3.625 17.84375 -5.070312 17.84375 -6.90625 L 17.84375 -9.34375 C 16.988281 -6.289062 14.726562 -4.765625 11.0625 -4.765625 C 8.007812 -4.765625 5.757812 -5.800781 4.3125 -7.875 C 2.863281 -9.957031 2.140625 -12.726562 2.140625 -16.1875 L 2.140625 -33 C 2.140625 -36.945312 2.800781 -39.96875 4.125 -42.0625 C 5.445312 -44.164062 7.757812 -45.21875 11.0625 -45.21875 C 12.976562 -45.21875 14.492188 -44.738281 15.609375 -43.78125 C 16.734375 -42.820312 17.476562 -41.46875 17.84375 -39.71875 L 17.84375 -44.734375 L 28.78125 -44.734375 L 28.78125 -7.578125 C 28.78125 -2.566406 27.617188 1.035156 25.296875 3.234375 C 22.972656 5.429688 19.265625 6.53125 14.171875 6.53125 Z M 15.34375 -12.828125 C 17.007812 -12.828125 17.84375 -14.335938 17.84375 -17.359375 L 17.84375 -33.296875 C 17.84375 -34.203125 17.597656 -35.0625 17.109375 -35.875 C 16.617188 -36.6875 16.007812 -37.09375 15.28125 -37.09375 C 14.34375 -37.09375 13.707031 -36.753906 13.375 -36.078125 C 13.050781 -35.410156 12.890625 -34.484375 12.890625 -33.296875 L 12.890625 -17.359375 C 12.890625 -16.015625 13.050781 -14.921875 13.375 -14.078125 C 13.707031 -13.242188 14.363281 -12.828125 15.34375 -12.828125 Z M 15.34375 -12.828125 "/></g></g></g><g fill="#000000" fill-opacity="1"><g transform="translate(237.599257, 195.411755)"><g><path d="M 2.140625 -44.734375 L 12.828125 -44.734375 L 12.828125 -39.78125 C 13.359375 -41.53125 14.285156 -42.882812 15.609375 -43.84375 C 16.929688 -44.800781 18.570312 -45.28125 20.53125 -45.28125 L 20.53125 -36.359375 C 19.019531 -36.359375 17.359375 -36.144531 15.546875 -35.71875 C 13.734375 -35.289062 12.828125 -34.789062 12.828125 -34.21875 L 12.828125 0 L 2.140625 0 Z M 2.140625 -44.734375 "/></g></g></g><g fill="#000000" fill-opacity="1"><g transform="translate(255.256963, 195.411755)"><g><path d="M 10.265625 0.484375 C 6.804688 0.484375 4.429688 -0.664062 3.140625 -2.96875 C 1.859375 -5.269531 1.21875 -8.554688 1.21875 -12.828125 C 1.21875 -16.335938 1.675781 -19.023438 2.59375 -20.890625 C 3.507812 -22.765625 4.78125 -24.140625 6.40625 -25.015625 C 8.039062 -25.898438 10.53125 -26.867188 13.875 -27.921875 L 16.8125 -28.90625 L 16.8125 -33.484375 C 16.8125 -34.671875 16.578125 -35.578125 16.109375 -36.203125 C 15.640625 -36.835938 15.078125 -37.15625 14.421875 -37.15625 C 13.847656 -37.15625 13.347656 -36.890625 12.921875 -36.359375 C 12.492188 -35.828125 12.28125 -35.113281 12.28125 -34.21875 L 12.28125 -31.53125 L 1.890625 -31.53125 L 1.890625 -33 C 1.890625 -37.394531 2.914062 -40.53125 4.96875 -42.40625 C 7.03125 -44.28125 10.382812 -45.21875 15.03125 -45.21875 C 18.738281 -45.21875 21.753906 -44.25 24.078125 -42.3125 C 26.398438 -40.382812 27.5625 -37.644531 27.5625 -34.09375 L 27.5625 0 L 16.921875 0 L 16.921875 -5.3125 C 16.398438 -3.476562 15.554688 -2.050781 14.390625 -1.03125 C 13.234375 -0.0195312 11.859375 0.484375 10.265625 0.484375 Z M 14.484375 -7.828125 C 15.296875 -7.828125 15.875 -8.160156 16.21875 -8.828125 C 16.570312 -9.503906 16.75 -10.332031 16.75 -11.3125 L 16.75 -23.765625 C 15.15625 -23.160156 13.976562 -22.390625 13.21875 -21.453125 C 12.46875 -20.515625 12.09375 -19.207031 12.09375 -17.53125 L 12.09375 -11.796875 C 12.09375 -9.148438 12.890625 -7.828125 14.484375 -7.828125 Z M 14.484375 -7.828125 "/></g></g></g><g fill="#000000" fill-opacity="1"><g transform="translate(281.407787, 195.411755)"><g><path d="M 14.421875 0.484375 C 5.578125 0.484375 1.15625 -3.992188 1.15625 -12.953125 L 1.21875 -16.5 L 11.921875 -16.5 L 11.984375 -11.25 C 11.984375 -10.1875 12.1875 -9.378906 12.59375 -8.828125 C 13 -8.273438 13.671875 -8 14.609375 -8 C 16.035156 -8 16.75 -9.160156 16.75 -11.484375 C 16.75 -13.203125 16.410156 -14.546875 15.734375 -15.515625 C 15.066406 -16.492188 14 -17.535156 12.53125 -18.640625 L 6.84375 -23.03125 C 4.882812 -24.539062 3.476562 -26.097656 2.625 -27.703125 C 1.769531 -29.316406 1.34375 -31.59375 1.34375 -34.53125 C 1.34375 -36.8125 1.941406 -38.753906 3.140625 -40.359375 C 4.347656 -41.972656 5.945312 -43.1875 7.9375 -44 C 9.9375 -44.8125 12.160156 -45.21875 14.609375 -45.21875 C 23.285156 -45.21875 27.625 -40.898438 27.625 -32.265625 L 27.625 -31.40625 L 16.5625 -31.40625 L 16.5625 -33.125 C 16.5625 -34.175781 16.382812 -35.078125 16.03125 -35.828125 C 15.6875 -36.585938 15.109375 -36.96875 14.296875 -36.96875 C 13.566406 -36.96875 13.003906 -36.753906 12.609375 -36.328125 C 12.222656 -35.898438 12.03125 -35.320312 12.03125 -34.59375 C 12.03125 -32.957031 12.664062 -31.691406 13.9375 -30.796875 L 20.53125 -25.96875 C 22.894531 -24.21875 24.707031 -22.3125 25.96875 -20.25 C 27.226562 -18.195312 27.859375 -15.601562 27.859375 -12.46875 C 27.859375 -8.3125 26.675781 -5.113281 24.3125 -2.875 C 21.957031 -0.632812 18.660156 0.484375 14.421875 0.484375 Z M 14.421875 0.484375 "/></g></g></g><g fill="#000000" fill-opacity="1"><g transform="translate(307.069811, 195.411755)"><g><path d="M 14.421875 0.484375 C 5.578125 0.484375 1.15625 -3.992188 1.15625 -12.953125 L 1.21875 -16.5 L 11.921875 -16.5 L 11.984375 -11.25 C 11.984375 -10.1875 12.1875 -9.378906 12.59375 -8.828125 C 13 -8.273438 13.671875 -8 14.609375 -8 C 16.035156 -8 16.75 -9.160156 16.75 -11.484375 C 16.75 -13.203125 16.410156 -14.546875 15.734375 -15.515625 C 15.066406 -16.492188 14 -17.535156 12.53125 -18.640625 L 6.84375 -23.03125 C 4.882812 -24.539062 3.476562 -26.097656 2.625 -27.703125 C 1.769531 -29.316406 1.34375 -31.59375 1.34375 -34.53125 C 1.34375 -36.8125 1.941406 -38.753906 3.140625 -40.359375 C 4.347656 -41.972656 5.945312 -43.1875 7.9375 -44 C 9.9375 -44.8125 12.160156 -45.21875 14.609375 -45.21875 C 23.285156 -45.21875 27.625 -40.898438 27.625 -32.265625 L 27.625 -31.40625 L 16.5625 -31.40625 L 16.5625 -33.125 C 16.5625 -34.175781 16.382812 -35.078125 16.03125 -35.828125 C 15.6875 -36.585938 15.109375 -36.96875 14.296875 -36.96875 C 13.566406 -36.96875 13.003906 -36.753906 12.609375 -36.328125 C 12.222656 -35.898438 12.03125 -35.320312 12.03125 -34.59375 C 12.03125 -32.957031 12.664062 -31.691406 13.9375 -30.796875 L 20.53125 -25.96875 C 22.894531 -24.21875 24.707031 -22.3125 25.96875 -20.25 C 27.226562 -18.195312 27.859375 -15.601562 27.859375 -12.46875 C 27.859375 -8.3125 26.675781 -5.113281 24.3125 -2.875 C 21.957031 -0.632812 18.660156 0.484375 14.421875 0.484375 Z M 14.421875 0.484375 "/></g></g></g><g clip-path="url(#1d77f17edd)"><g clip-path="url(#af2ef3db76)"><path fill="#000000" d="M 337.5 177.699219 L 357.101562 177.699219 L 357.101562 197.300781 L 337.5 197.300781 Z M 337.5 177.699219 " fill-opacity="1" fill-rule="nonzero"/></g></g></svg>